<svg id="Layer_1" xmlns="http://www.w3.org/2000/svg" viewBox="0 0 310.9 115.8"><style>.st0{fill:#6d6e71}.st1{fill:#aa2772}</style><path class="st0" d="M108.7 73.7h2.9c.5 0 1 .1 1.4.2.4.1.8.3 1.1.5.3.2.5.5.7.8.2.3.2.7.2 1.2s-.1.9-.3 1.2c-.2.3-.4.6-.7.8-.3.2-.7.4-1.1.5-.4.1-.9.2-1.4.2H110v4.2h-1.3v-9.6zm1.3 4.2h1.4c.3 0 .6 0 .9-.1.3-.1.5-.1.7-.3.2-.1.4-.3.5-.5.1-.2.2-.4.2-.7 0-.3-.1-.5-.2-.7-.1-.2-.3-.4-.5-.5-.2-.1-.4-.2-.7-.3-.3 0-.6-.1-.9-.1H110v3.2zM134.8 83.2h-1.3v-9.5h3.1c.5 0 .9 0 1.3.1s.8.2 1.1.5c.3.2.6.5.7.8.2.3.3.7.3 1.2 0 .7-.2 1.3-.6 1.7-.4.4-1 .7-1.7.8l2.7 4.4h-1.6l-2.4-4.2H135v4.2zm0-5.3h1.5c.3 0 .6 0 .9-.1.3-.1.5-.1.7-.3.2-.1.4-.3.5-.5.1-.2.2-.4.2-.7 0-.3-.1-.5-.2-.7-.1-.2-.3-.3-.5-.5-.2-.1-.4-.2-.7-.2-.3 0-.5-.1-.8-.1h-1.6v3.1zM168.1 78.5c0 .7-.1 1.4-.4 2-.3.6-.6 1.1-1.1 1.6-.4.4-1 .8-1.6 1-.6.2-1.3.4-2 .4s-1.4-.1-2-.4c-.6-.2-1.1-.6-1.6-1-.4-.4-.8-1-1.1-1.6-.3-.6-.4-1.3-.4-2s.1-1.4.4-2c.3-.6.6-1.1 1.1-1.6.4-.4 1-.8 1.6-1 .6-.2 1.3-.4 2-.4s1.4.1 2 .4c.6.2 1.2.6 1.6 1 .4.4.8 1 1.1 1.6.2.5.4 1.2.4 2zm-1.5 0c0-.5-.1-1-.3-1.5-.2-.5-.4-.9-.7-1.2-.3-.4-.7-.6-1.1-.8-.4-.2-.9-.3-1.5-.3-.5 0-1 .1-1.5.3-.4.2-.8.5-1.1.8-.3.4-.6.8-.7 1.2-.2.5-.3 1-.3 1.5s.1 1 .3 1.5c.2.5.4.9.7 1.2.3.3.7.6 1.1.8.4.2.9.3 1.5.3.5 0 1-.1 1.5-.3.4-.2.8-.5 1.1-.8.3-.3.6-.8.7-1.2.2-.5.3-1 .3-1.5zM186.4 81.1c.1.3.2.6.5.8.2.2.5.3.9.3.3 0 .5-.1.7-.2.2-.1.3-.3.4-.4.1-.2.2-.4.2-.6 0-.2.1-.5.1-.8v-6.6h1.3v6.6c0 .3 0 .7-.1 1.1-.1.4-.2.7-.4 1-.2.3-.5.6-.8.8-.4.2-.8.3-1.4.3-.7 0-1.3-.2-1.8-.6-.5-.4-.8-.9-.9-1.5l1.3-.2zM210.9 82.1h5v1.2h-6.3v-9.5h6.1V75h-4.8v2.9h4.5V79h-4.5v3.1zM242.5 81.8c-.4.5-.9.9-1.5 1.2-.6.3-1.3.5-2.2.5-.7 0-1.4-.1-2-.4-.6-.2-1.1-.6-1.6-1-.4-.4-.8-1-1-1.6-.3-.6-.4-1.3-.4-2s.1-1.4.4-2c.3-.6.6-1.1 1.1-1.6.5-.4 1-.8 1.6-1 .6-.2 1.3-.4 2-.4.3 0 .7 0 1 .1.3.1.7.2 1 .3.3.1.6.3.8.5.3.2.5.4.6.6l-1.1.8c-.2-.3-.6-.6-1-.8-.4-.2-.9-.3-1.4-.3-.6 0-1.1.1-1.5.3-.4.2-.8.5-1.1.8-.3.4-.6.8-.7 1.2-.2.5-.3 1-.3 1.5s.1 1 .2 1.5c.2.5.4.9.7 1.2.3.3.7.6 1.1.8.4.2.9.3 1.5.3.5 0 1-.1 1.5-.3.4-.2.8-.5 1.1-.9l1.2.7zM263.9 83.2h-1.3v-8.4h-3.1v-1.2h7.5v1.2h-3.1v8.4zM71.1 63.3h1.3V37.1h-1.3v26.2zm28.2-1.9L81.1 37.1h-1.5v26.2h1.3V39L99 63.2l.1.1h1.5V37.1h-1.3v24.3zm15.8.3l-9.2-24.4-.1-.2h-1.4l9.8 26 .1.2h1.6l10-26.2h-1.4l-9.4 24.6zm14.6 1.6h1.3V37.1h-1.3v26.2zm20.9-11.4c-.7-.5-1.6-1-2.5-1.4-.9-.4-2-.7-3.1-1.1-.8-.3-1.6-.6-2.3-.9-.7-.3-1.4-.7-2-1.2-.6-.5-1-1-1.4-1.7-.3-.6-.5-1.5-.5-2.4 0-1 .2-1.8.6-2.5.4-.7.9-1.3 1.6-1.8.6-.5 1.4-.8 2.2-1.1.8-.2 1.6-.4 2.5-.4 1.2 0 2.3.2 3.3.7 1 .5 1.8 1.1 2.5 1.9l.2.2 1-.9-.2-.2c-.8-.9-1.8-1.7-3-2.2-1.2-.5-2.5-.8-3.8-.8-1.1 0-2.1.2-3.1.5s-1.9.8-2.6 1.3c-.8.6-1.4 1.3-1.8 2.2-.4.9-.7 1.9-.7 3s.2 2.1.5 2.9c.4.8.9 1.5 1.6 2 .7.6 1.4 1 2.3 1.4.9.4 1.9.7 2.9 1.1.8.3 1.7.6 2.5.9.8.3 1.5.7 2.2 1.2.6.5 1.1 1 1.5 1.7.4.6.6 1.4.6 2.4 0 .9-.2 1.8-.5 2.5-.4.7-.9 1.3-1.5 1.8s-1.4.9-2.2 1.2c-.8.3-1.7.4-2.6.4-1.3 0-2.5-.2-3.7-.7-1.2-.5-2.2-1.2-3.1-2.2l-.2-.2-1 .9.2.2c.9 1 2 1.8 3.4 2.4 1.3.6 2.8.9 4.5.9 1.1 0 2.1-.2 3.1-.5s1.8-.8 2.6-1.4c.7-.6 1.3-1.4 1.7-2.3.4-.9.7-1.9.7-3s-.2-2.1-.6-2.9c-.5-.6-1.1-1.3-1.8-1.9zm8.3 11.4h1.3V37.1h-1.3v26.2zM181.7 51c-.7-.5-1.4-1-2.2-1.3-.4-.2-.8-.3-1.2-.4.4-.1.7-.3 1.1-.4.7-.3 1.2-.7 1.8-1.2.5-.5.9-1.1 1.2-1.8.3-.7.5-1.5.5-2.5 0-1.2-.2-2.3-.7-3.1-.5-.8-1.1-1.5-1.9-1.9-.8-.5-1.7-.8-2.6-1-1-.2-2-.3-2.9-.3h-7.2v26.2h8.1c.9 0 1.9-.1 2.9-.3 1-.2 1.9-.6 2.8-1.1.8-.5 1.5-1.3 2.1-2.2.5-.9.8-2.1.8-3.5 0-1.2-.2-2.2-.7-3-.7-.9-1.3-1.6-1.9-2.2zm-13.1-12.7h5.7c.9 0 1.9.1 2.7.3.9.2 1.6.5 2.3.9.6.4 1.2.9 1.5 1.6.4.7.6 1.5.6 2.5 0 .9-.2 1.8-.6 2.4-.4.7-.9 1.2-1.6 1.7-.6.4-1.4.8-2.2 1-.8.2-1.7.3-2.5.3h-5.9V38.3zm13.5 20.6c-.4.7-.9 1.3-1.6 1.8-.7.5-1.5.8-2.4 1-.9.2-2 .3-3.1.3h-6.5V50.1h6.9c.8 0 1.6.1 2.5.3.8.2 1.6.6 2.3 1.1.7.5 1.3 1.1 1.7 1.9.4.8.7 1.7.7 2.8.1 1.1-.1 2-.5 2.7zm8.7-21.8h-1.3v26.2h14.1V62h-12.8V37.1zM208.9 62V50.3h13.3v-1.2h-13.3V38.3H223v-1.2h-15.5v26.2h16V62h-14.6z"/><path class="st1" d="M252.1 51.3h6.7V61c-1.1.5-2.3.9-3.5 1.3-1.3.4-2.9.5-4.6.5-2 0-3.7-.3-5.3-1-1.5-.7-2.9-1.6-3.9-2.7-1.1-1.1-1.9-2.5-2.5-4-.6-1.5-.9-3.2-.9-4.9 0-1.7.3-3.4.9-4.9.6-1.5 1.4-2.8 2.5-4 1.1-1.1 2.4-2 3.9-2.7 1.5-.6 3.2-1 5-1 .7 0 1.4.1 2.1.2.7.1 1.5.3 2.2.5.7.2 1.4.5 2 .9.6.3 1.2.7 1.6 1.2l.2.2.9-.9-.2-.2c-1.1-.9-2.4-1.7-3.9-2.2-1.5-.5-3.1-.8-4.9-.8-2 0-3.9.3-5.5 1-1.7.7-3.1 1.6-4.3 2.9-1.2 1.2-2.1 2.7-2.8 4.4-.7 1.7-1 3.5-1 5.5s.3 3.8 1 5.5c.7 1.7 1.6 3.2 2.8 4.4 1.2 1.2 2.7 2.2 4.4 2.9 1.7.7 3.6 1.1 5.7 1.1 2 0 3.9-.2 5.4-.7 1.6-.5 2.9-1 3.9-1.5l.1-.1V50.1h-8v1.2zm14.7 12h1.3V37.1h-1.3v26.2zM285.9 50c.9-.2 1.7-.6 2.5-1.1.8-.5 1.4-1.2 1.9-2s.7-1.9.7-3.1c0-1.3-.3-2.5-.8-3.3-.5-.9-1.2-1.5-2-2s-1.7-.8-2.7-1c-1-.2-2-.3-2.9-.3h-7.4v26.2h1.3V50.3h5.6l7.7 12.8.1.1h1.5l-7.8-13c.8.1 1.5-.1 2.3-.2zm-9.3-.9V38.3h5.6c.9 0 1.9.1 2.8.3.9.2 1.7.5 2.4.9s1.2 1 1.6 1.7c.4.7.6 1.6.6 2.6 0 1.7-.6 3.1-1.8 4-1.2.9-3 1.4-5.3 1.4h-5.9zM298.1 62V37.1h-1.3v26.2h14.1V62h-12.8zM31.4 34.6c.2 0 .4-.2.4-.4s-.2-.4-.4-.4-.4.2-.4.4c-.1.2.1.4.4.4zm-2.5 10.3c0-.3-.3-.6-.6-.6s-.6.3-.6.6.3.6.6.6c.4-.1.6-.3.6-.6zm1.8 4.5c0 .4.4.8.8.8s.8-.4.8-.8-.4-.8-.8-.8c-.5 0-.8.4-.8.8zm.4-19.5c.1 0 .2-.1.2-.2s-.1-.2-.2-.2-.2.1-.2.2c.1.2.1.2.2.2zm-2.7 79.7c.4.1.8.1 1.1.1h1.1c.4 0 .8-.1 1.1-.2.2 0 .4-.1.6-.2.2-.1.4-.1.5-.2.3-.2.7-.3 1-.6.3-.2.6-.5.8-.7-.4.1-.7.3-1 .4-.3.1-.7.2-1 .3-.3.1-.7.1-1 .2-.3 0-.7.1-1 .1-.7 0-1.4-.1-2.1-.2-.6-.1-1.1-.2-1.7-.4 0-.1.1-.1.2-.2.2-.2.4-.3.7-.4.5-.2 1.1-.4 1.7-.5 1.2-.2 2.4-.4 3.6-.5-1.2-.1-2.4-.1-3.7 0-.6.1-1.2.2-1.9.4-.3.1-.6.2-.9.4-.1.1-.3.2-.4.4-.1.2-.2.4-.2.6v.3l.3.1c.7.5 1.4.7 2.2.8zm-5-38.7c0 .7.5 1.2 1.2 1.2s1.2-.5 1.2-1.2-.5-1.2-1.2-1.2-1.2.5-1.2 1.2zm1.9-6.9c.5 0 1-.4 1-1 0-.5-.4-1-1-1-.5 0-1 .4-1 1s.5 1 1 1zm-1.4 3c0 .6.5 1.1 1.1 1.1.6 0 1.1-.5 1.1-1.1 0-.6-.5-1.1-1.1-1.1-.6 0-1.1.5-1.1 1.1zm2.5 39c.7 0 1.3-.6 1.3-1.3 0-.7-.6-1.3-1.3-1.3-.7 0-1.3.6-1.3 1.3 0 .7.6 1.3 1.3 1.3zm6.8-69.2c.3 0 .6-.3.5-.6 0-.3-.3-.6-.6-.5-.3 0-.6.3-.5.6 0 .3.3.5.6.5zm-8.5 3.6c-.1 0-.2.1-.2.2s.1.2.2.2.2-.1.2-.2 0-.2-.2-.2zm7.4-10c-.2 0-.3.1-.3.3 0 .2.1.3.3.3.2 0 .3-.1.3-.3 0-.1-.1-.3-.3-.3zm0 21.3c0 .5.4.8.8.8.5 0 .8-.4.8-.8 0-.5-.4-.8-.8-.8s-.8.4-.8.8zm-3 53.3c0 .7.5 1.2 1.2 1.2s1.2-.5 1.2-1.2-.5-1.2-1.2-1.2c-.6 0-1.2.5-1.2 1.2zm.8-58.6c-.4 0-.7.3-.7.7s.3.7.7.7c.4 0 .7-.3.7-.7s-.3-.7-.7-.7zm3.6 7.7c0 .5.4.9.9.9s.9-.4.9-.9-.4-.9-.9-.9-.9.4-.9.9zm.6-21.9c-.2 0-.4.2-.4.4s.2.4.4.4.4-.2.4-.4-.1-.4-.4-.4zm1.5 1.4c0-.3-.2-.5-.5-.5s-.5.2-.5.5.2.5.5.5.5-.2.5-.5zm-1.4 4.8c0 .4.3.7.7.6.4 0 .7-.3.6-.7 0-.4-.3-.7-.7-.6-.3 0-.6.3-.6.7zm-1.1-6.3c.2 0 .4-.2.4-.4s-.2-.4-.4-.4-.4.2-.4.4.2.4.4.4zm-9.2 54.3c0-.8-.6-1.4-1.4-1.4-.8 0-1.4.6-1.4 1.4 0 .8.6 1.4 1.4 1.4.7.1 1.4-.6 1.4-1.4zM50 57.3c-.2-1.6-.5-3.1-.7-4.5-.2-1.4-.4-2.7-.5-3.8-.1-1.1-.2-2.1-.3-2.9 0-1.7-.1-2.6-.1-2.6s-.1.9-.4 2.5c-.1.8-.2 1.8-.3 3-.1 1.2-.1 2.5-.1 3.9 0 .8 0 1.6.1 2.4-.2.2-.3.4-.3.7 0 .3.2.5.4.6.1 1.9.3 3.9.5 6 .2 1.8.4 3.6.7 5.4.3 1.8.6 3.7.9 5.6.3 1.9.7 3.7 1 5.6.3 1.8.7 3.6 1.1 5.4.4 1.7.7 3.4 1.1 5 .3 1.6.7 3.1 1 4.5.3 1.4.6 2.6.9 3.8.2 1.1.5 2.1.7 2.9.1.4.2.8.2 1.1.1.3.1.6.1.8.1.4.1.7.1.7s0-.2.1-.7c.1-.4.1-1.1.1-1.9 0-1.7-.2-4.1-.5-6.9-.3-2.8-.7-6.1-1.3-9.6-.3-1.7-.5-3.6-.8-5.4-.3-1.8-.6-3.7-.9-5.6-.6-3.7-1.3-7.4-1.9-10.9-.2-1.3-.4-2.5-.6-3.7.3-.1.6-.4.6-.7-.1-.5-.4-.8-.9-.7.1 0 0 0 0 0zm-25.2 1.8c0 .5.4.8.8.8s.8-.4.8-.8c0-.5-.4-.8-.8-.8s-.8.4-.8.8zm-4.5 31.2c0 .8.7 1.5 1.5 1.5s1.5-.7 1.5-1.5-.7-1.5-1.5-1.5-1.5.7-1.5 1.5zm31.3-30.5c0 .3.3.6.6.6s.6-.3.6-.6-.3-.6-.6-.6-.6.3-.6.6zm-33.8 42c0 .8.6 1.4 1.4 1.4.8 0 1.4-.6 1.4-1.4 0-.8-.6-1.4-1.4-1.4-.8 0-1.4.6-1.4 1.4zM29.3 32c-.1 0-.2.1-.2.3 0 .1.1.2.3.2.1 0 .2-.1.2-.3 0-.1-.2-.2-.3-.2zM59 62.8c-.1 0-.1 0 0 0-.1 0-.1 0 0 0zm-4.8-9.5c.8 1.4 1.8 2.5 2.7 3.5.9.9 1.8 1.5 2.4 1.9.6.4 1 .6 1 .6s-.3-.3-.7-.9c-.5-.5-1-1.4-1.8-2.3-1.4-2-2.6-4.9-3.5-7.9-.8-3.1-1.3-6.3-1.6-8.7-.3-2.5-.8-4.1-.8-4.1s-.2 1.7-.4 4.1c-.2 2.5-.2 5.9.7 9.2.6 1.5 1.2 3.2 2 4.6zm2.6 9.1c0 .1.1.3.3.2.1 0 .3-.1.2-.3 0-.1-.1-.3-.3-.2-.1.1-.2.2-.2.3zM54 61.3c0 .2.2.4.5.4.2 0 .4-.2.4-.5 0-.2-.2-.4-.5-.4-.2.1-.4.3-.4.5zM21.6 98c0-.8-.6-1.4-1.4-1.4-.8 0-1.4.6-1.4 1.4 0 .8.6 1.4 1.4 1.4.7 0 1.4-.6 1.4-1.4zm4-46.7c0 .3.2.5.5.5s.5-.2.5-.5-.2-.5-.5-.5-.5.2-.5.5zm.4-3.9c0 .1.1.3.3.3s.3-.1.3-.3c0-.1-.1-.3-.3-.3s-.3.1-.3.3zm.6-4.3c.2 0 .4-.2.4-.4s-.2-.4-.4-.4-.4.2-.4.4.2.4.4.4zm-1.4 12.1c0 .4.3.7.7.7.4 0 .7-.3.7-.7 0-.4-.3-.7-.7-.7-.4 0-.7.3-.7.7zm-5.7 39c0 .8.7 1.5 1.5 1.5s1.5-.7 1.5-1.5-.7-1.5-1.5-1.5-1.5.6-1.5 1.5zm3.1 10.9c.8 0 1.4-.6 1.4-1.4 0-.8-.6-1.4-1.4-1.4-.8 0-1.4.6-1.4 1.4 0 .8.6 1.4 1.4 1.4zm1.9-22.5c0-.8-.6-1.4-1.4-1.4-.8 0-1.4.6-1.4 1.4 0 .8.6 1.4 1.4 1.4.8 0 1.4-.7 1.4-1.4zm.9-7.8c0-.7-.6-1.3-1.3-1.3-.7 0-1.3.6-1.3 1.3s.6 1.3 1.3 1.3c.7 0 1.3-.6 1.3-1.3zm-.4 3.9c0-.7-.6-1.4-1.4-1.4-.7 0-1.4.6-1.4 1.4 0 .7.6 1.4 1.4 1.4.8-.1 1.4-.7 1.4-1.4zm-5.9-20c.5 0 .9-.4.9-.9s-.4-.9-.9-.9-.9.4-.9.9.4.9.9.9zm23.8 50.4c.7.4 1.5.5 2.3.6.8 0 1.6 0 2.3-.2.8-.2 1.5-.4 2.2-.8l.2-.1v-.2c0-.4-.3-.8-.5-1.1-.3-.2-.6-.4-.9-.5-.6-.2-1.3-.3-1.9-.2.6.2 1.2.4 1.7.7.4.2.7.5.8.8-.6.2-1.2.4-1.8.5-.7.1-1.4.2-2.1.2-.7 0-1.4-.1-2.1-.2-.7-.2-1.3-.5-2-.9.4.5 1.1 1.1 1.8 1.4zm-5.8-74c-.3 0-.5.2-.5.5s.2.5.5.5.5-.2.5-.5-.2-.5-.5-.5zm-1.8 69.8c0-.6-.5-1.1-1.1-1.1-.6 0-1.1.5-1.1 1.1s.5 1.1 1.1 1.1c.6 0 1.1-.5 1.1-1.1zm-5.1-92.1c2.3-.4 7.2-4.1 8.3-7.4 1.3 3.8 3.7 6.4 7.4 7.8.1.4-.7 6.4-1.4 8.2-.7 1.8-3.6 4.5-5.3 5.3 0 4.1 5.8 6 6.7 9.9.9 4.6-2.6 8.7-3.3 9.4-.1.1 7.7-3.9 7.1-10.7-.3-2-1.6-3.8-2.2-5.7-2.7-7 3.8-10.4 2.7-20.9-.9-7-8.2-9.4-13.1-8.6-9.5 1.7-12.7 13.6-5.3 21.4-1.2-1.9-2.1-5.2-1.6-8.7zm18.5 58.3c0-.2-.2-.4-.4-.4s-.4.2-.4.4.2.4.4.4.4-.1.4-.4zm1.5 33.4c0-.1-.1-.2-.2-.2s-.2.1-.2.2.1.2.2.2.2-.1.2-.2zM36.1 34c-.3 0-.5.2-.5.5s.2.5.5.5.5-.2.5-.5-.2-.5-.5-.5zm-.3 6.6c0 .4.4.8.8.7.4 0 .8-.4.7-.8 0-.4-.4-.8-.8-.7-.4 0-.8.4-.7.8zm1.6 19c.5 0 .9-.4.9-.9s-.4-.9-.9-.9-.9.4-.9.9.4.9.9.9zm.8 46c.5 0 .9-.4.9-.9s-.4-.9-.9-.9-.9.4-.9.9.4.9.9.9zm2.3-41.5c.5 0 .9-.4.9-.9s-.4-.9-.9-.9-.9.4-.9.9c.1.5.5.9.9.9zM20 55.8c.6 0 1.1-.5 1.1-1.1 0-.6-.5-1.1-1.1-1.1-.6 0-1.1.5-1.1 1.1 0 .6.5 1.1 1.1 1.1zm.8-3.1c.7 0 1.2-.6 1.2-1.2 0-.7-.6-1.2-1.2-1.2s-1.2.6-1.2 1.2c-.1.6.5 1.2 1.2 1.2zM18 61.4c.4 0 .7-.3.7-.7 0-.4-.3-.7-.7-.7-.4 0-.7.3-.7.7 0 .4.3.7.7.7zm25.8-27c0-.2-.1-.3-.3-.3-.2 0-.3.1-.3.3 0 .2.1.3.3.3.2 0 .3-.1.3-.3zM16.5 64.1c.2 0 .4-.2.4-.4s-.2-.4-.4-.4-.4.2-.4.4.2.4.4.4zm4.9-14.8c.7 0 1.3-.6 1.3-1.3 0-.7-.6-1.3-1.3-1.3-.7 0-1.3.6-1.3 1.3-.1.7.5 1.3 1.3 1.3zm1-6.7c.7 0 1.3-.6 1.3-1.3 0-.7-.6-1.3-1.3-1.3-.7 0-1.3.6-1.3 1.3 0 .7.6 1.3 1.3 1.3zm.6-2.9c.7 0 1.3-.6 1.3-1.3 0-.5-.3-1-.8-1.2.7 0 1.2-.5 1.2-1.2 2.2-10.1 7.1-4.3 8.7-11.4h-.5c-1.2 4.8-8.4 1.1-10.5 10.9-.1.1-.1.3-.1.5 0 .5.3.9.7 1.1-.7 0-1.3.6-1.3 1.3 0 .7.5 1.3 1.3 1.3zm-1.1 6.1c.8 0 1.4-.6 1.4-1.4 0-.8-.6-1.4-1.4-1.4s-1.4.6-1.4 1.4c.1.8.7 1.4 1.4 1.4zM39.8 61c0-.5-.4-.9-.9-.9s-.9.4-.9.9.4.9.9.9.9-.4.9-.9zm6.2 42.8c-.3 0-.5.2-.5.5s.2.5.5.5.5-.2.5-.5-.2-.5-.5-.5zm-1.4-53c-.5 0-.9.4-.8.9 0 .5.4.9.9.8.5 0 .9-.4.8-.9 0-.4-.4-.8-.9-.8zm2.6 3c0-.5-.4-.8-.9-.8s-.8.4-.8.9.4.8.9.8.9-.4.8-.9zm-3.2 13c-.4 0-.7.3-.7.7s.3.7.7.7c.4 0 .7-.3.7-.7s-.3-.7-.7-.7zm-3.3-34c0-.2-.2-.4-.4-.4s-.4.2-.4.4.2.4.4.4.4-.2.4-.4zm-1.2 4.4c0 .4.3.6.6.6.4 0 .6-.3.6-.6 0-.4-.3-.6-.6-.6s-.6.2-.6.6zm-2.2 5.7c0 .5.4.8.9.8s.8-.4.8-.9-.4-.8-.9-.8-.8.4-.8.9zm5.6 5.7c-.5 0-.9.5-.9 1s.5.9 1 .9.9-.5.9-1-.5-.9-1-.9zM46 68.9c-.3 0-.6.3-.6.6s.3.5.6.5.6-.3.6-.6-.3-.5-.6-.5zm-9.2-12.5c0-.5-.4-.9-.9-.9s-.9.4-.9.9.4.9.9.9.9-.4.9-.9zm5.4 8.2c-.4 0-.8.4-.8.8s.4.8.8.8.8-.4.8-.8-.3-.8-.8-.8zm-2.5-20.4c-.5 0-.9.4-.8.9 0 .5.4.9.9.8.5 0 .9-.4.8-.9 0-.5-.4-.9-.9-.8zm-.4-11c-.3 0-.5.2-.5.5s.2.5.5.5.5-.2.5-.5c-.1-.2-.3-.5-.5-.5zm-1.1.9c-.3 0-.5.2-.5.5s.2.5.5.5.5-.2.5-.5-.2-.5-.5-.5zm-.4 4.5c0 .4.3.7.7.7.4 0 .7-.3.7-.7 0-.4-.3-.7-.7-.7-.4 0-.7.3-.7.7zm2.7 8.8c0 .5.5.9 1 .9s.9-.5.9-1-.5-.9-1-.9c-.6 0-1 .5-.9 1zm1.3-12.1c-.3 0-.5.2-.5.5s.2.5.5.5.5-.2.5-.5-.2-.5-.5-.5zm.3 68.4c-.4 0-.7.3-.7.7 0 .4.3.7.7.7.4 0 .7-.3.7-.7 0-.3-.3-.7-.7-.7zm-.7-72.1c-.2 0-.3.1-.3.3s.1.3.3.3c.2 0 .3-.1.3-.3s-.2-.3-.3-.3zm-2.1 79.5c-15.4 0-29.3 1.8-39.3 4.7 11.6-1.4 25-2.2 39.3-2.2s27.7.8 39.3 2.2c-10-2.9-23.9-4.7-39.3-4.7z"/></svg>